<?xml version="1.0" encoding="utf-8"?>
<!-- Generator: Adobe Illustrator 16.0.0, SVG Export Plug-In . SVG Version: 6.00 Build 0)  -->
<!DOCTYPE svg PUBLIC "-//W3C//DTD SVG 1.1//EN" "http://www.w3.org/Graphics/SVG/1.1/DTD/svg11.dtd">
<svg version="1.1" id="Layer_1" xmlns="http://www.w3.org/2000/svg" xmlns:xlink="http://www.w3.org/1999/xlink" x="0px" y="0px"
	 width="1200.1px" height="1135.1px" viewBox="0 0 1200.1 1135.1" enable-background="new 0 0 1200.1 1135.1" xml:space="preserve">
<path fill-rule="evenodd" clip-rule="evenodd" fill="#68CCAC" d="M0,1099.1c5.5-14.1,11.3-28.1,18.1-41.6
	c16.3-32.5,34.9-63.6,54.6-94.1c28.3-44,58.9-86.3,90.6-127.8c22.5-29.5,45.6-58.4,69.3-86.9c20.4-24.5,40.9-49,62-72.9
	c12.1-13.7,24.1-27.5,36.3-41.1c1.9-2.2,2-3.6,0.7-6c-6.3-11.7-11.4-24.1-17.2-36.1c-8.2-17-6.9-34.3-4.4-52.3
	c2.9-20,13.5-35.5,26.2-50.1c9.1-10.5,18.4-21,27.6-31.5c1.1-1.2,2.1-3.2,3.9-2.7c2,0.6,1.3,2.9,1.2,4.4c-0.4,14.5,0.3,29,1.1,43.4
	c0.8,14.9,4.7,29.2,9.9,43.1c2.2,5.8,3.8,11.9,7.3,18.5c1.1-5.9-0.2-10.7-0.7-15.3c-2.4-21.8-4.8-43.7-3.6-65.7
	c0.9-17.5,1.1-35.3,8.2-51.9c6.7-15.4,16.3-29,26.7-42c14.2-17.9,30.3-34.1,46.9-49.7c22.9-21.5,47-41.6,72-60.7
	c12.6-9.6,25.3-18.9,38-28.3c1.2-0.9,2.7-2.8,4.3-1.7c1.6,1.1,0.5,3,0.2,4.6c-3.4,18.5-6.9,37-8,55.7c-0.6,9.9,1.3,19.9,3,29.7
	c1.4,8,3,16,4.7,24.4c1.6-1.4,1.7-2.8,1.8-4.2c0.8-20.8,2.5-41.5,5.2-62c2.9-22.3,6.4-44.5,15.9-65.2c4-8.8,10.6-15.7,17.7-22
	c15.5-13.9,31.7-26.9,48.9-38.5c16.9-11.3,34.1-22,51.7-32.1c22.5-13,45.7-24.7,69.1-36c40.8-19.6,82.5-37.3,124.9-53.3
	c24.6-9.3,49.3-18.4,74.4-26.4c25.4-8.1,50.6-16.7,76.8-21.9c18.3-3.6,37-3.4,55.6-2.1c17.8,1.3,35.4,3.5,52.8,7.3
	c7.2,1.6,14.1,3.9,20.9,6.8c3.9,1.7,5.2,4.5,5.4,8.6c1.1,19.7-4.5,37.6-15,53.9c-20.3,31.7-43.3,61.5-66.6,90.9
	c-16.8,21.2-34,42.1-51.4,63c-14,16.9-28.8,33.1-42.7,50.1c-5.6,6.9-12,4.1-18.2,3.2c-27.8-3.7-52.5-15.5-75.4-31.2
	c-1.1-0.8-2.2-1.5-3.3-2.2c-0.3-0.2-0.6-0.2-1.2-0.5c-0.4,2,1.2,2.9,2.1,4.1c17.4,21.4,40.2,34.4,66,42.8c3.3,1.1,6.6,2.4,9.7,3.9
	c4.5,2.1,5,4.6,2.1,8.7c-1.6,2.3-3.4,4.5-5.4,6.5c-22.4,23.3-46.7,44.4-71.2,65.5c-26.2,22.5-52.6,44.8-79.7,66.3
	c-16.3,12.9-33.2,25-50.2,37.1c-25.9,18.4-52.2,36.3-78.1,54.6c-3.7,2.6-6.5,2.5-10.4,0.6c-25.6-12-51.2-24.2-78.6-31.6
	c-12-3.2-24.2-5.6-36.4-8.4c-0.2,0.4-0.3,0.8-0.5,1.3c2.3,0.9,4.5,1.9,6.8,2.8c22.8,8.9,44.9,19.5,67.9,27.8c3.6,1.3,6.9,3.3,10,5.5
	c6.6,4.5,7.8,10.3,3.9,17.3c-2.6,4.7-6.1,8.7-9.8,12.6c-20.9,21.8-45.2,39.7-69.4,57.6c-20.4,15-41.5,28.8-63.5,41.4
	c-14.3,8.2-29.3,15.1-44.7,21c-13.9,5.4-26.4,2.5-38.7-4.5c-12.3-7-24.9-13.4-37.6-19.7c-2.2-1.1-3.7-1.2-5.5,1
	c-8,9.1-16.2,18.1-24.4,27c-13.8,15.1-27.4,30.4-40.9,45.7c-14.4,16.3-28.6,32.8-42.4,49.6c-21.5,26.2-42.6,52.7-63.7,79.3
	c-37,46.8-73.2,94.3-108.8,142.2c-27.4,36.8-54.5,73.9-81.5,111c-9.5,13.1-21.3,17.4-37.3,14.1c-8.9-1.9-13-5.9-14.2-14.3
	c-0.2-1.6-1.2-3.1-1.8-4.6C0,1109.8,0,1104.4,0,1099.1z M1123.6,62.8c-1.7,0.3-2.1,0.3-2.5,0.4c-14.9,6.9-30,13.7-44.8,20.9
	c-20.4,9.9-40.4,20.4-60.4,31.1c-26.3,14-52.3,28.5-77.9,43.8c-38,22.6-75.5,46.2-112.1,71.2c-22.3,15.2-44.4,30.6-66,46.7
	c-38.6,28.6-76.2,58.5-112.9,89.5c-18.6,15.8-37.2,31.7-55.5,47.9c-18.6,16.4-36.9,33.1-55,50c-16.2,15.1-32.2,30.4-47.9,45.9
	c-21.9,21.6-43.8,43.4-64.9,65.8c-7.9,8.4-16,16.5-23.8,24.9c-7.6,8.1-15.2,16.3-22.6,24.6c-15.5,17.3-30.9,34.8-46.3,52.2
	c-12.3,13.9-24.8,27.8-36.8,42c-16.3,19.3-32.3,38.8-48.5,58.2c-22,26.4-43.2,53.5-64.1,80.9c-35.6,46.7-69.6,94.6-100.4,144.7
	c-16.9,27.5-33,55.5-46.3,85c-1.8,3.9-3.8,7.9-4.5,12.4c1.6-0.1,2-1.2,2.5-2c22.4-30.6,44.7-61.3,67.3-91.7
	c30.4-40.8,60.9-81.5,92.2-121.7c23.5-30.1,47.3-60.1,71.1-90c28.8-36.1,59.1-71,89.8-105.5c16.9-19,34.1-37.8,51.4-56.4
	c17.1-18.4,34.1-36.9,51.8-54.7c29.2-29.2,57.9-58.9,87.9-87.3c19.1-18.1,38.3-36,58.2-53.1c24-20.6,48-41,71.7-61.8
	c23.4-20.4,46.6-41,70.3-61.2c21.3-18.3,43.2-35.9,65.5-53c32-24.5,65-47.5,98.4-70c32.3-21.8,65.1-42.7,98.4-62.9
	c30.1-18.3,60.5-36.2,91.6-53C1106.8,72.3,1114.6,67.8,1123.6,62.8z"/>
</svg>
