<?xml version="1.0" encoding="utf-8"?>
<!-- Generator: Adobe Illustrator 16.0.0, SVG Export Plug-In . SVG Version: 6.00 Build 0)  -->
<!DOCTYPE svg PUBLIC "-//W3C//DTD SVG 1.1//EN" "http://www.w3.org/Graphics/SVG/1.1/DTD/svg11.dtd">
<svg version="1.1" id="Layer_1" xmlns="http://www.w3.org/2000/svg" xmlns:xlink="http://www.w3.org/1999/xlink" x="0px" y="0px"
	 width="384.1px" height="384.1px" viewBox="0 0 384.1 384.1" enable-background="new 0 0 384.1 384.1" xml:space="preserve">
<g>
	<path fill-rule="evenodd" clip-rule="evenodd" fill="#01A317" d="M328.9,120.9c-0.7-14.7-7.3-27.2-17.7-37.4
		c-24.4-23.7-54.4-35.1-87.6-39c-9.9-1.1-19.9-0.8-29.9-0.9c-10,0-20-0.1-29.9,0.8c-25.1,2.3-48.5,10.2-69.8,23.8
		c-12.4,7.9-23.2,17.4-30.3,30.5c-4.3,8.1-7,16.7-6.4,25.8c1.1,17.6,9.5,31.6,22.6,42.8c20.8,17.7,44.9,28.9,71.8,33.2
		c8.7,1.4,14.3,4.4,17.2,12.8c4.6,13.3,9.8,26.3,14.6,39.5c0.9,2.4,0,6.2,1.5,7.3c1.8,1.4,5.2,0.6,8,0.8c2.7-0.2,6.1,0.6,7.9-0.8
		c1.5-1.1,1-4.8,1.5-7.4c0-0.3,0.1-0.5,0.2-0.7c4.3-16.8,11-32.6,19.4-47.6c0.6-1,2.2-1.9,3.5-2.1c18.8-2.6,36.8-7.9,53.6-16.8
		c14-7.4,27.1-16,37-28.7C324.6,146.3,329.5,134.3,328.9,120.9z M252.8,165.6c-8.2,11.6-19.5,18.4-32.9,21.9
		c-17.9,4.7-35.8,4.6-53.7,0c-18.2-4.7-31.1-15.8-39.1-32.7c-8-16.8-9.5-34.4-5.9-53.3c18.8,7.1,37,13.9,55.7,21
		c2.1-12.9,7.3-23.9,16.2-33.6c8.9,9.4,14.2,20.4,16.3,33.6c18.6-7,36.9-13.9,55.9-21c0.6,5.2,1.5,9.9,1.7,14.7
		C267.5,134,263.3,150.7,252.8,165.6z"/>
	<path fill-rule="evenodd" clip-rule="evenodd" fill="#01A317" d="M239.3,319.7c-14.6,12-28.9,23.8-43.5,35.4
		c-1.1,0.9-4.2,0.9-5.3,0c-14.4-11.5-28.6-23.3-42.9-35.1c-0.2-0.1-0.2-0.4-0.5-1c5.2-4.4,10.6-8.9,15.9-13.4
		c9.1-7.6,18.2-15.3,27.2-22.9c1.8-1.5,3.6-1.9,5.5-0.3c14.2,12,28.5,23.9,42.7,35.9C238.7,318.7,238.8,319.1,239.3,319.7z"/>
</g>
</svg>
